<svg id="layer_1" data-name="layer 1" xmlns="http://www.w3.org/2000/svg" viewBox="0 0 208.56 787.48"><defs><style>.cls-1{fill:#214491;}.cls-2{fill:#2f5ba9;}.cls-3{fill:#33322d;}.cls-4{fill:#fff;}.cls-5{fill:#191818;opacity:0.5;}</style></defs><circle class="cls-1" cx="722.29" cy="364.77" r="81.99" transform="translate(-486.84 627.23) rotate(-67.5)"/><circle class="cls-2" cx="722.29" cy="364.77" r="71.36" transform="translate(-619.76 -213.14) rotate(-4.07)"/><path class="cls-3" d="M786.8,364.77a64.51,64.51,0,1,1-64.51-64.51A64.51,64.51,0,0,1,786.8,364.77Z" transform="translate(-595.72 -265.26)"/><path class="cls-1" d="M779.71,364.77a7.21,7.21,0,1,1-7.21-7.21A7.21,7.21,0,0,1,779.71,364.77Z" transform="translate(-595.72 -265.26)"/><path class="cls-2" d="M776.79,364.77a4.29,4.29,0,1,1-4.29-4.29A4.29,4.29,0,0,1,776.79,364.77Z" transform="translate(-595.72 -265.26)"/><path class="cls-4" d="M775,364.77a2.54,2.54,0,1,1-2.54-2.54A2.54,2.54,0,0,1,775,364.77Z" transform="translate(-595.72 -265.26)"/><path class="cls-1" d="M679.29,364.77a7.21,7.21,0,1,1-7.21-7.21A7.21,7.21,0,0,1,679.29,364.77Z" transform="translate(-595.72 -265.26)"/><path class="cls-2" d="M676.37,364.77a4.29,4.29,0,1,1-4.29-4.29A4.29,4.29,0,0,1,676.37,364.77Z" transform="translate(-595.72 -265.26)"/><path class="cls-4" d="M674.62,364.77a2.54,2.54,0,1,1-2.54-2.54A2.54,2.54,0,0,1,674.62,364.77Z" transform="translate(-595.72 -265.26)"/><path class="cls-5" d="M794,737.31,737.6,628.36l-.11-214.7h5.91v-5.3h6.73V386.92h20.15V339.37H745.77V328.79h4v-5h17.54V281.22H752.65v-9.88h-7.74v-6.08H721.54v6.08h-7.73v9.88H699.18v42.56h17.53v5h4v10.58H696.17v47.55h20.15v21.44h6.74v5.3h6.62l.11,215.65a4,4,0,0,0,.43,1.79l56.24,108.72L776.64,817,700.47,928.55l-7.33-5.15-3.5,5L683.31,924l-21.64,30.84,14.12,9.91L673,968.86,660,959.8l-24.6,35.08-4.53-3.18-24,34.15,19.17,13.44,19.16,13.45,24-34.15-4.53-3.18,24.61-35.08-10-7,2.84-4.15,11.28,7.9,21.64-30.84-6.34-4.44,3.5-5-5.4-3.79,76.76-112.43a3.79,3.79,0,0,0,.64-1.71l10.1-79.3A3.87,3.87,0,0,0,794,737.31Z" transform="translate(-595.72 -265.26)"/><path class="cls-3" d="M642.65,1002,769,817l9.82-77.16L722.55,631.1a3.88,3.88,0,0,1-.44-1.79l-.17-326.51a3.9,3.9,0,0,1,2.13-3.47,3.91,3.91,0,0,0-1.78-.44h0a3.9,3.9,0,0,0-3.9,3.91l.17,326.51a3.87,3.87,0,0,0,.43,1.79l56.24,108.72L765.41,817,639.09,1002a3.91,3.91,0,0,0,3.23,6.11,4.06,4.06,0,0,0,1.83-.45,3.42,3.42,0,0,1-.47-.23A3.91,3.91,0,0,1,642.65,1002Z" transform="translate(-595.72 -265.26)"/><path d="M645.55,1006.41l126.84-185.8a3.93,3.93,0,0,0,.65-1.71l10.09-79.3a4,4,0,0,0-.4-2.29L726.37,628.36l-.17-325.57a2.39,2.39,0,1,0-4.26,0l.17,326.51a3.88,3.88,0,0,0,.44,1.79l56.24,108.72L769,817,642.65,1002a3.91,3.91,0,0,0,1,5.43,3.42,3.42,0,0,0,.47.23A4,4,0,0,0,645.55,1006.41Z" transform="translate(-595.72 -265.26)"/><rect class="cls-3" x="113.73" y="49.77" width="12.54" height="42.57"/><rect x="126.27" y="49.77" width="12.54" height="42.57"/><polygon class="cls-2" points="53.09 694.54 28.48 729.62 23.95 726.44 0 760.59 19.16 774.03 67.72 704.81 53.09 694.54"/><polygon class="cls-2" points="86.18 658.15 82.69 663.13 76.36 658.69 54.72 689.54 70.62 700.69 95.75 664.86 86.18 658.15"/><polygon class="cls-1" points="62.28 753.33 57.75 750.15 82.36 715.07 67.72 704.81 19.16 774.03 38.33 787.48 62.28 753.33"/><polygon class="cls-1" points="108.15 680.99 101.82 676.55 105.31 671.57 95.75 664.86 70.62 700.69 86.51 711.84 108.15 680.99"/><polygon class="cls-2" points="89.22 74.11 89.22 121.67 109.37 121.67 109.37 143.1 116.1 143.1 116.1 148.4 126.27 148.4 126.27 74.11 89.22 74.11"/><polygon class="cls-2" points="114.59 0 114.59 6.09 106.85 6.09 106.85 15.96 92.22 15.96 92.22 58.53 109.76 58.53 109.76 63.53 126.27 63.53 126.27 0 114.59 0"/><polygon class="cls-1" points="136.44 143.1 143.18 143.1 143.18 121.67 163.32 121.67 163.32 74.11 126.27 74.11 126.27 148.4 136.44 148.4 136.44 143.1"/><polygon class="cls-1" points="142.78 58.53 160.32 58.53 160.32 15.96 145.69 15.96 145.69 6.09 137.96 6.09 137.96 0 126.27 0 126.27 63.53 142.78 63.53 142.78 58.53"/><path class="cls-1" d="M635.22,1020.56a7.2,7.2,0,1,1-7.2-7.2A7.2,7.2,0,0,1,635.22,1020.56Z" transform="translate(-595.72 -265.26)"/><path class="cls-2" d="M632.3,1020.56a4.29,4.29,0,1,1-4.28-4.28A4.29,4.29,0,0,1,632.3,1020.56Z" transform="translate(-595.72 -265.26)"/><path class="cls-1" d="M687,942.88a4.4,4.4,0,1,1-4.39-4.39A4.39,4.39,0,0,1,687,942.88Z" transform="translate(-595.72 -265.26)"/><path class="cls-2" d="M685.17,942.88a2.62,2.62,0,1,1-2.61-2.61A2.61,2.61,0,0,1,685.17,942.88Z" transform="translate(-595.72 -265.26)"/><path class="cls-1" d="M678.08,955.41a4.39,4.39,0,1,1-4.39-4.39A4.39,4.39,0,0,1,678.08,955.41Z" transform="translate(-595.72 -265.26)"/><path class="cls-2" d="M676.3,955.41a2.61,2.61,0,1,1-2.61-2.61A2.61,2.61,0,0,1,676.3,955.41Z" transform="translate(-595.72 -265.26)"/><path class="cls-1" d="M729.19,386.31a7.2,7.2,0,1,1-7.19-7.2A7.19,7.19,0,0,1,729.19,386.31Z" transform="translate(-595.72 -265.26)"/><path class="cls-2" d="M726.28,386.31A4.29,4.29,0,1,1,722,382,4.28,4.28,0,0,1,726.28,386.31Z" transform="translate(-595.72 -265.26)"/><path class="cls-1" d="M729.19,361.19A7.2,7.2,0,1,1,722,354,7.19,7.19,0,0,1,729.19,361.19Z" transform="translate(-595.72 -265.26)"/><path class="cls-2" d="M726.28,361.19a4.29,4.29,0,1,1-4.28-4.28A4.29,4.29,0,0,1,726.28,361.19Z" transform="translate(-595.72 -265.26)"/><path class="cls-1" d="M734.78,302A12.79,12.79,0,1,1,722,289.19,12.78,12.78,0,0,1,734.78,302Z" transform="translate(-595.72 -265.26)"/><path class="cls-2" d="M729.6,302a7.61,7.61,0,1,1-7.6-7.6A7.61,7.61,0,0,1,729.6,302Z" transform="translate(-595.72 -265.26)"/></svg>